<mxfile host="65bd71144e">
    <diagram id="8N77lmUbWsxuMwzMKlVs" name="Page-1">
        <mxGraphModel dx="182" dy="481" grid="1" gridSize="10" guides="1" tooltips="1" connect="1" arrows="1" fold="1" page="1" pageScale="1" pageWidth="850" pageHeight="1100" math="0" shadow="0">
            <root>
                <mxCell id="0"/>
                <mxCell id="1" parent="0"/>
                <mxCell id="7" value="" style="edgeStyle=none;html=1;" parent="1" source="5" target="6" edge="1">
                    <mxGeometry relative="1" as="geometry"/>
                </mxCell>
                <UserObject label="filemap_read.md" link="https://github.com/sigmanature/learn_os_note/blob/main/6.13.1%E5%86%85%E6%A0%B8%E6%96%87%E6%A1%A3%E6%B3%A8%E9%87%8A/mm/filemap.c/filemap_read.md" id="5">
                    <mxCell style="fontStyle=4;rounded=1;overflow=hidden;spacing=10;fillColor=#fff2cc;strokeColor=#d6b656;" parent="1" vertex="1">
                        <mxGeometry x="165" y="130" width="130" height="40" as="geometry"/>
                    </mxCell>
                </UserObject>
                <UserObject label="filemap_get_pages.md" link="https://github.com/sigmanature/learn_os_note/blob/main/6.13.1%E5%86%85%E6%A0%B8%E6%96%87%E6%A1%A3%E6%B3%A8%E9%87%8A/mm/filemap.c/filemap_get_pages.md" id="6">
                    <mxCell style="fontStyle=4;rounded=1;overflow=hidden;spacing=10;fillColor=#fff2cc;strokeColor=#d6b656;" parent="1" vertex="1">
                        <mxGeometry x="150" y="220" width="160" height="40" as="geometry"/>
                    </mxCell>
                </UserObject>
                <mxCell id="12" value="" style="edgeStyle=none;html=1;" parent="1" source="8" target="11" edge="1">
                    <mxGeometry relative="1" as="geometry"/>
                </mxCell>
                <UserObject label="page_sync_readahead.md" link="https://github.com/sigmanature/learn_os_note/blob/main/6.13.1%E5%86%85%E6%A0%B8%E6%96%87%E6%A1%A3%E6%B3%A8%E9%87%8A/include/linux/pagemap.h/page_cache_sync_readahead.md" id="8">
                    <mxCell style="fontStyle=4;rounded=1;overflow=hidden;spacing=10;fillColor=#fff2cc;strokeColor=#d6b656;" parent="1" vertex="1">
                        <mxGeometry x="220" y="390" width="160" height="40" as="geometry"/>
                    </mxCell>
                </UserObject>
                <UserObject label="page_cache_sync_ra" link="https://github.com/sigmanature/learn_os_note/blob/main/6.13.1%E5%86%85%E6%A0%B8%E6%96%87%E6%A1%A3%E6%B3%A8%E9%87%8A/mm/readahead.c/readahead_funcs.md" id="11">
                    <mxCell style="fontStyle=4;rounded=1;overflow=hidden;spacing=10;fillColor=#fff2cc;strokeColor=#d6b656;" parent="1" vertex="1">
                        <mxGeometry x="190" y="460" width="160" height="40" as="geometry"/>
                    </mxCell>
                </UserObject>
                <mxCell id="17" value="&lt;font style=&quot;font-size: 20px;&quot;&gt;是否直接写入?&lt;/font&gt;" style="rhombus;whiteSpace=wrap;html=1;fillColor=light-dark(#92b6e8, #1d293b);strokeColor=#6c8ebf;opacity=80;" parent="1" vertex="1">
                    <mxGeometry x="330" y="200" width="210" height="80" as="geometry"/>
                </mxCell>
            </root>
        </mxGraphModel>
    </diagram>
</mxfile>